<svg xmlns="http://www.w3.org/2000/svg" width="1em" height="1em" viewBox="0 0 256 256"><defs><linearGradient id="a" x1="0%" x2="100%" y1="50%" y2="50%"><stop offset="19%" stop-color="#07c3f2"/><stop offset="90%" stop-color="#087cfa"/></linearGradient><linearGradient id="b" x1="0%" x2="100%" y1="50%" y2="50%"><stop offset="19%" stop-color="#07c3f2"/><stop offset="90%" stop-color="#087cfa"/></linearGradient><linearGradient id="c" x1="65.64%" x2="16.25%" y1="103.18%" y2="34.03%"><stop offset="9%" stop-color="#21d789"/><stop offset="48%" stop-color="#07c3f2"/><stop offset="90%" stop-color="#087cfa"/></linearGradient></defs><path fill="#087cfa" d="M195.63 256 256 96.37 208 85.5z"/><path fill="url(#a)" d="M255.25 205.33 195.63 256l-85.1-21.92z"/><path fill="url(#b)" d="M31.87 117.28 4.67 39.47 140.48 0z"/><path fill="url(#c)" d="m223.36 148.21-38.1-65.04.71-.45L140.48 0 0 151.7V256l255.25-50.67z"/><path d="M48 48h160v160H48z"/><path fill="#fff" d="M67.95 177.76h60v10h-60zM180.19 76.19l-8.48 9.78a22.3 22.3 0 0 0-15.47-6.82c-10.07 0-17.38 8.26-17.54 18.48v.53c0 10.37 7.17 19.01 17.54 19.01 6.44 0 10.56-2.31 15.02-6.2l.65-.6.33-.29 8.37 8.59a31 31 0 0 1-24.8 10.66 30.53 30.53 0 0 1-31.04-30.51v-.66a30.75 30.75 0 0 1 31.55-31.28 31.3 31.3 0 0 1 23.87 9.3M101.33 68l25.55 60.08h-13.7l-5.34-13.33H82.51l-5.34 13.33H63.84L89.34 68zm-6.18 15.76-8 19.36h16z"/></svg>