<svg xmlns="http://www.w3.org/2000/svg" width="64" height="64" fill="none" viewBox="0 0 64 64"><defs><linearGradient id="a" x1="59.93" x2="1.34" y1="59.68" y2="1.08" gradientUnits="userSpaceOnUse"><stop offset=".25" stop-color="#7256ff"/><stop offset=".73" stop-color="#007dfe"/></linearGradient><linearGradient id="b" x1="7.67" x2="61.13" y1="64.39" y2="39.61" gradientUnits="userSpaceOnUse"><stop offset=".3" stop-color="#00d886"/><stop offset=".54" stop-color="#7256ff"/></linearGradient></defs><path fill="url(#a)" d="M0 4.13v34.12c0 1.66 1 3.16 2.52 3.8l37.42 15.8a4 4 0 0 0 1.64.32l18.33-.15A4.13 4.13 0 0 0 64 53.9V36.23c0-.8-.24-1.59-.68-2.26L42.22 1.86A4.1 4.1 0 0 0 38.76 0H4.12A4.13 4.13 0 0 0 0 4.13"/><path fill="url(#b)" d="M6 49.02v10.86A4.13 4.13 0 0 0 10.13 64h12.56a4 4 0 0 0 .6-.04l37.18-5.45A4.1 4.1 0 0 0 64 54.43v-15.4a4.13 4.13 0 0 0-4.13-4.12h-18.5q-.65 0-1.25.2L8.87 45.09A4.1 4.1 0 0 0 6 49"/><path fill="#00d886" d="M6 47.55v12.26a4.13 4.13 0 0 0 4.19 4.12L21 64a5 5 0 0 0 3.3-1.68L57 24.16c.65-.75 1-1.7 1-2.69V10.13A4.13 4.13 0 0 0 53.88 6h-11c-1.2 0-2.33.51-3.11 1.4L7.02 44.84A4 4 0 0 0 6 47.55"/><path fill="#000" d="M52 12H12v40h40z"/><path fill="#fff" d="M33 44H17v3h16zM20.75 31.24a7.3 7.3 0 0 1-2.76-2.78q-1-1.78-1-3.97c0-2.18.33-2.77 1-3.95a7.3 7.3 0 0 1 2.76-2.8 7.7 7.7 0 0 1 3.91-1q2.17 0 3.91 1a7.3 7.3 0 0 1 2.75 2.8q1 1.77 1 3.95c0 2.18-.34 2.78-1 3.96a7.3 7.3 0 0 1-2.75 2.8 7.7 7.7 0 0 1-3.9 1 7.7 7.7 0 0 1-3.92-1Zm6.3-2.23a4.6 4.6 0 0 0 1.66-1.85q.6-1.2.6-2.66 0-1.5-.6-2.67a4.6 4.6 0 0 0-1.66-1.85q-1.05-.67-2.39-.67a4.4 4.4 0 0 0-2.4.67 4.6 4.6 0 0 0-1.66 1.85q-.6 1.2-.6 2.67t.6 2.66 1.67 1.85a4.4 4.4 0 0 0 2.4.67q1.32 0 2.38-.67m-2.16 6.04a2.7 2.7 0 0 1-1.12-1.08 3.3 3.3 0 0 1-.4-1.64v-1.94h2.74v1.81q0 .33.13.57.12.25.37.37.24.12.57.12h1.84v2.17H26.6q-.98 0-1.7-.38m13.34-18.06h3.18l5.56 15h-2.95l-1.21-3.47h-5.84L35.83 32h-3.01zm3.8 9.26-2.02-5.72-.22-.95-.22.95-1.9 5.72z"/></svg>