<svg xmlns="http://www.w3.org/2000/svg" width="64" height="64" fill="none" viewBox="0 0 64 64"><defs><linearGradient id="a" x1="4.07" x2="62.66" y1="4.33" y2="62.92" gradientUnits="userSpaceOnUse"><stop offset=".29" stop-color="#009ae5"/><stop offset=".7" stop-color="#00d980"/></linearGradient><linearGradient id="b" x1="56.33" x2="2.87" y1="-.39" y2="24.39" gradientUnits="userSpaceOnUse"><stop offset=".3" stop-color="#ff2d90"/><stop offset=".54" stop-color="#009ae5"/></linearGradient></defs><path fill="url(#a)" d="M64 59.88V25.75a4.1 4.1 0 0 0-2.52-3.8L24.06 6.15a4 4 0 0 0-1.64-.32l-18.33.15A4.1 4.1 0 0 0 0 10.1v17.67c0 .8.24 1.6.68 2.27l21.1 32.1A4.1 4.1 0 0 0 25.24 64h34.64A4.13 4.13 0 0 0 64 59.88"/><path fill="url(#b)" d="M58 14.99V4.13A4.13 4.13 0 0 0 53.88 0H41.3a4 4 0 0 0-.6.04L3.53 5.5A4.1 4.1 0 0 0 0 9.57v15.4a4.13 4.13 0 0 0 4.13 4.13h18.5q.65-.01 1.25-.2l31.25-9.98A4.1 4.1 0 0 0 58 14.99"/><path fill="#ff2d90" d="M58 16.45V4.2A4.13 4.13 0 0 0 53.81.07L43.01.01a5 5 0 0 0-3.31 1.68L7 39.84c-.65.75-1 1.7-1 2.69v11.35A4.13 4.13 0 0 0 10.13 58h11c1.19 0 2.32-.51 3.1-1.4l32.75-37.43A4 4 0 0 0 58 16.45"/><path fill="#000" d="M52 12H12v40h40z"/><path fill="#fff" d="M33 44H17v3h16zM20.75 31.24A7.3 7.3 0 0 1 18 28.46q-1-1.78-1-3.97c0-2.18.34-2.77 1-3.95a7.3 7.3 0 0 1 2.75-2.8 7.6 7.6 0 0 1 3.9-1q1.82 0 3.34.67a7 7 0 0 1 2.54 1.9 6.4 6.4 0 0 1 1.35 2.78h-3.06a4 4 0 0 0-.9-1.43 4 4 0 0 0-1.43-.95 5 5 0 0 0-1.82-.33q-1.34 0-2.4.67a4.6 4.6 0 0 0-1.68 1.82q-.6 1.17-.6 2.62 0 1.47.6 2.62a4.6 4.6 0 0 0 1.68 1.83q1.07.67 2.4.67a5 5 0 0 0 1.82-.34 4 4 0 0 0 2.33-2.38h3.06a6.4 6.4 0 0 1-1.35 2.8 7 7 0 0 1-2.54 1.89 8 8 0 0 1-3.34.67 7.6 7.6 0 0 1-3.9-1.01M37.33 17v12.37h7.12V32H34.4V17z"/></svg>