<svg xmlns="http://www.w3.org/2000/svg" width="64" height="64" fill="none" viewBox="0 0 64 64"><defs><linearGradient id="a" x1="59.68" x2="1.08" y1="4.07" y2="62.66" gradientUnits="userSpaceOnUse"><stop offset=".28" stop-color="#7256ff"/><stop offset=".66" stop-color="#00d980"/></linearGradient><linearGradient id="b" x1="64.39" x2="39.61" y1="56.33" y2="2.87" gradientUnits="userSpaceOnUse"><stop offset=".3" stop-color="#ff43f2"/><stop offset=".54" stop-color="#7256ff"/></linearGradient></defs><path fill="url(#a)" d="M4.13 64h34.12a4.1 4.1 0 0 0 3.8-2.52l15.8-37.42a4 4 0 0 0 .32-1.64l-.15-18.33A4.13 4.13 0 0 0 53.9 0H36.23c-.8 0-1.59.24-2.26.68L1.86 21.78A4.1 4.1 0 0 0 0 25.24v34.64A4.13 4.13 0 0 0 4.13 64"/><path fill="url(#b)" d="M49.01 58h10.87A4.13 4.13 0 0 0 64 53.88V41.3a4 4 0 0 0-.04-.6L58.5 3.53A4.1 4.1 0 0 0 54.43 0h-15.4a4.13 4.13 0 0 0-4.13 4.13v18.5q.01.65.2 1.25l9.98 31.25A4.1 4.1 0 0 0 49.01 58"/><path fill="#ff43f2" d="M47.55 58h12.26a4.13 4.13 0 0 0 4.12-4.19L64 43a5 5 0 0 0-1.68-3.3L24.16 7a4 4 0 0 0-2.69-1H10.13A4.13 4.13 0 0 0 6 10.13v11c0 1.19.51 2.32 1.4 3.1l37.43 32.75A4 4 0 0 0 47.55 58"/><path fill="#000" d="M52 12H12v40h40z"/><path fill="#fff" d="M33 44H17v3h16zM17.01 17h5.71q2.14 0 3.83.96a7 7 0 0 1 2.64 2.67 8 8 0 0 1 .95 3.87 8 8 0 0 1-.95 3.86 7 7 0 0 1-2.64 2.67q-1.7.97-3.82.97H17zm8.03 11.87q1-.6 1.55-1.72t.55-2.65-.55-2.66a4 4 0 0 0-1.55-1.72 4.5 4.5 0 0 0-2.35-.6h-2.75v9.95h2.75q1.35 0 2.35-.6m10.39 2.37a7.3 7.3 0 0 1-2.75-2.78q-1-1.78-1-3.97c0-2.18.34-2.77 1-3.95s1.58-2.12 2.75-2.8a7.6 7.6 0 0 1 3.9-1q1.74 0 3.22.62a7 7 0 0 1 2.49 1.74 6.4 6.4 0 0 1 1.42 2.6h-3.13a4 4 0 0 0-.93-1.23q-.6-.52-1.37-.8a4 4 0 0 0-1.68-.29q-1.34 0-2.4.67a4.6 4.6 0 0 0-1.68 1.82q-.6 1.17-.6 2.62c0 1.45.2 1.85.6 2.63a4.6 4.6 0 0 0 1.68 1.82q1.06.67 2.4.67 1.23 0 2.23-.46t1.6-1.28a3.3 3.3 0 0 0 .63-1.83v.3H40.3v-2.3h6.36v1.18q0 1.98-.96 3.59a7 7 0 0 1-2.63 2.52 7.6 7.6 0 0 1-3.73.92 8 8 0 0 1-3.9-1Z"/></svg>