<svg xmlns="http://www.w3.org/2000/svg" width="64" height="64" fill="none" viewBox="0 0 64 64"><defs><linearGradient id="a" x1="4.07" x2="62.66" y1="4.33" y2="62.92" gradientUnits="userSpaceOnUse"><stop offset=".28" stop-color="#007dfe"/><stop offset=".73" stop-color="#00d980"/></linearGradient><linearGradient id="b" x1="56.33" x2="2.88" y1="-.39" y2="24.39" gradientUnits="userSpaceOnUse"><stop offset=".32" stop-color="#f0eb18"/><stop offset=".55" stop-color="#007dfe"/></linearGradient></defs><path fill="url(#a)" d="M64 59.88V25.75a4.1 4.1 0 0 0-2.52-3.8L24.06 6.15a4 4 0 0 0-1.64-.32l-18.33.15A4.1 4.1 0 0 0 0 10.1v17.67c0 .8.24 1.6.68 2.27l21.1 32.1A4.1 4.1 0 0 0 25.24 64h34.64A4.13 4.13 0 0 0 64 59.88"/><path fill="url(#b)" d="M58 14.99V4.13A4.13 4.13 0 0 0 53.88 0H41.3a4 4 0 0 0-.6.04L3.53 5.5A4.1 4.1 0 0 0 0 9.57v15.4a4.13 4.13 0 0 0 4.13 4.13h18.5q.65-.01 1.25-.2l31.25-9.98A4.1 4.1 0 0 0 58 14.99"/><path fill="#f0eb18" d="M58 16.45V4.19A4.13 4.13 0 0 0 53.81.07L43 0a5 5 0 0 0-3.3 1.68L7 39.84c-.65.75-1 1.7-1 2.69v11.34A4.13 4.13 0 0 0 10.13 58h11c1.19 0 2.32-.51 3.1-1.4l32.75-37.43A4 4 0 0 0 58 16.45"/><path fill="#000" d="M52 12H12v40h40z"/><path fill="#fff" d="M33 44H17v3h16zM17.01 17h5.71q2.14 0 3.83.96a7 7 0 0 1 2.64 2.67 8 8 0 0 1 .95 3.87 8 8 0 0 1-.95 3.86 7 7 0 0 1-2.64 2.67q-1.7.97-3.82.97H17zm8.03 11.87q1-.6 1.55-1.72t.55-2.65-.55-2.66a4 4 0 0 0-1.55-1.72 4.5 4.5 0 0 0-2.35-.6h-2.75v9.95h2.75q1.35 0 2.35-.6m9.67 2.8q-1.26-.6-1.97-1.66a4.4 4.4 0 0 1-.73-2.44h2.93q0 .66.35 1.15t.95.77q.61.27 1.4.28.78 0 1.34-.25t.89-.7q.3-.45.31-1.04 0-.7-.43-1.19a2.3 2.3 0 0 0-1.2-.65l-2.64-.59a5 5 0 0 1-1.87-.8 4 4 0 0 1-1.23-1.43q-.44-.84-.44-1.9 0-1.29.67-2.32a4.5 4.5 0 0 1 1.85-1.6q1.2-.57 2.7-.57c1.5 0 1.93.19 2.73.56s1.43.89 1.87 1.55q.68.99.68 2.28h-2.92q0-.56-.3-.98c-.3-.42-.46-.52-.81-.68a3 3 0 0 0-1.22-.24q-.68 0-1.2.23a2 2 0 0 0-.81.65q-.3.4-.3.96 0 .6.41 1.02t1.1.58l2.55.56q1.11.22 1.97.85a4.5 4.5 0 0 1 1.34 1.55q.48.9.48 2 0 1.32-.7 2.38a5 5 0 0 1-1.96 1.66q-1.27.6-2.9.6c-1.63 0-2.05-.2-2.89-.6Z"/></svg>