<svg xmlns="http://www.w3.org/2000/svg" width="64" height="64" fill="none" viewBox="0 0 64 64"><defs><linearGradient id="a" x1="56.33" x2="2.87" y1="-.39" y2="24.39" gradientUnits="userSpaceOnUse"><stop offset=".18" stop-color="#6b57ff"/><stop offset=".54" stop-color="#ff45ed"/></linearGradient><linearGradient id="b" x1="4.07" x2="62.66" y1="4.33" y2="62.92" gradientUnits="userSpaceOnUse"><stop offset=".12" stop-color="#ff45ed"/><stop offset=".92" stop-color="#fc801d"/></linearGradient></defs><path fill="#6b57ff" d="M58 16.45V4.19A4.13 4.13 0 0 0 53.81.06L42.76.24a4.1 4.1 0 0 0-3.06 1.44L7 39.84c-.65.74-1 1.7-1 2.68v11.35A4.13 4.13 0 0 0 10.13 58h11c1.19 0 2.32-.52 3.1-1.41l32.75-37.43A4 4 0 0 0 58 16.45"/><path fill="url(#a)" d="M58 14.99V4.13A4.13 4.13 0 0 0 53.88 0H41.3a4 4 0 0 0-.6.04L3.53 5.5A4.1 4.1 0 0 0 0 9.57v15.4a4.13 4.13 0 0 0 4.13 4.13h18.5q.65-.01 1.25-.2l31.25-9.98A4.1 4.1 0 0 0 58 14.99"/><path fill="url(#b)" d="M64 59.88V25.75a4.1 4.1 0 0 0-2.52-3.8L24.06 6.15a4 4 0 0 0-1.64-.32l-18.33.15A4.1 4.1 0 0 0 0 10.1v17.67c0 .8.24 1.6.68 2.27l21.1 32.1A4.1 4.1 0 0 0 25.24 64h34.64A4.13 4.13 0 0 0 64 59.88"/><path fill="#000" d="M52 12H12v40h40z"/><path fill="#fff" d="M33 44H17v3h16zM17 17h5.7q2.14 0 3.83.96a7 7 0 0 1 2.64 2.67 8 8 0 0 1 .96 3.87 8 8 0 0 1-.96 3.86 7 7 0 0 1-2.64 2.67q-1.68.97-3.82.97H17zm8.02 11.87q1.02-.6 1.56-1.72a6 6 0 0 0 .55-2.65q0-1.54-.55-2.66a4 4 0 0 0-1.56-1.72 4.5 4.5 0 0 0-2.34-.6h-2.76v9.95h2.76q1.34 0 2.34-.6m10.39 2.37a7.3 7.3 0 0 1-2.74-2.78q-1-1.78-1-3.97c0-2.18.33-2.77 1-3.95s1.58-2.12 2.74-2.8a7.6 7.6 0 0 1 3.9-1q1.82 0 3.35.67a7 7 0 0 1 2.53 1.9 6.4 6.4 0 0 1 1.36 2.78h-3.07a4 4 0 0 0-.9-1.43 4 4 0 0 0-1.42-.95 5 5 0 0 0-1.83-.33q-1.32 0-2.4.67a4.6 4.6 0 0 0-1.68 1.82q-.6 1.17-.6 2.62 0 1.47.6 2.62a4.6 4.6 0 0 0 1.68 1.83q1.08.67 2.4.67.99 0 1.83-.34a4 4 0 0 0 2.32-2.38h3.07a6.4 6.4 0 0 1-1.36 2.8 7 7 0 0 1-2.53 1.89 8 8 0 0 1-3.35.67 7.6 7.6 0 0 1-3.9-1.01"/></svg>