<svg xmlns="http://www.w3.org/2000/svg" width="64" height="64" fill="none" viewBox="0 0 64 64"><defs><linearGradient id="a" x1="64.39" x2="39.61" y1="56.33" y2="2.87" gradientUnits="userSpaceOnUse"><stop offset=".24" stop-color="#00d886"/><stop offset=".51" stop-color="#007dfe"/></linearGradient><linearGradient id="b" x1="59.68" x2="1.08" y1="4.07" y2="62.66" gradientUnits="userSpaceOnUse"><stop offset=".27" stop-color="#007dfe"/><stop offset=".7" stop-color="#d249fc"/></linearGradient></defs><path fill="#00d886" d="M47.55 58h12.26a4.13 4.13 0 0 0 4.12-4.19l-.17-11.04a4.1 4.1 0 0 0-1.44-3.07L24.16 7a4 4 0 0 0-2.69-1H10.13A4.13 4.13 0 0 0 6 10.13v11c0 1.19.51 2.32 1.4 3.1l37.43 32.75A4 4 0 0 0 47.55 58"/><path fill="url(#a)" d="M49.01 58h10.87A4.13 4.13 0 0 0 64 53.88V41.3a4 4 0 0 0-.04-.6L58.5 3.53A4.1 4.1 0 0 0 54.43 0h-15.4a4.13 4.13 0 0 0-4.13 4.13v18.5q.01.65.2 1.25l9.98 31.25A4.1 4.1 0 0 0 49.01 58"/><path fill="url(#b)" d="M4.13 64h34.12a4.1 4.1 0 0 0 3.8-2.52l15.8-37.42a4 4 0 0 0 .32-1.64l-.15-18.33A4.1 4.1 0 0 0 53.9 0H36.23c-.8 0-1.59.24-2.26.68L1.86 21.78A4.1 4.1 0 0 0 0 25.24v34.64A4.13 4.13 0 0 0 4.13 64"/><path fill="#000" d="M52 12H12v40h40z"/><path fill="#fff" d="M19.75 31.24A7.3 7.3 0 0 1 17 28.46q-1-1.78-1-3.97c0-2.18.33-2.77 1-3.95s1.58-2.12 2.74-2.8a7.6 7.6 0 0 1 3.9-1q1.75 0 3.22.62a7 7 0 0 1 2.49 1.74 6.4 6.4 0 0 1 1.42 2.6h-3.13a4 4 0 0 0-.93-1.23q-.58-.52-1.36-.8a4 4 0 0 0-1.69-.29q-1.32 0-2.4.67a4.6 4.6 0 0 0-1.68 1.82q-.6 1.17-.6 2.62c0 1.45.2 1.85.6 2.63a4.6 4.6 0 0 0 1.68 1.82q1.08.67 2.4.67a5 5 0 0 0 2.24-.46q1-.47 1.59-1.28a3.3 3.3 0 0 0 .63-1.83l.01.3h-3.52v-2.3h6.35v1.18q0 1.98-.96 3.59a7 7 0 0 1-2.62 2.52q-1.67.92-3.74.92a6.2 6.2 0 0 1-3.9-1Zm16.52 0a7.3 7.3 0 0 1-2.75-2.78q-1-1.78-1-3.97c0-2.18.33-2.77 1-3.95a7.3 7.3 0 0 1 2.75-2.8 7.7 7.7 0 0 1 3.92-1q2.16 0 3.9 1a7.3 7.3 0 0 1 2.76 2.8q1 1.77 1 3.95c0 2.18-.34 2.78-1 3.96s-1.59 2.12-2.75 2.8a7.7 7.7 0 0 1-3.91 1 7.7 7.7 0 0 1-3.92-1Zm6.3-2.23a4.6 4.6 0 0 0 1.67-1.85q.6-1.2.6-2.66 0-1.5-.6-2.67a4.4 4.4 0 0 0-4.05-2.52 4.4 4.4 0 0 0-2.4.67 4.6 4.6 0 0 0-1.67 1.85q-.6 1.2-.6 2.67t.6 2.66q.6 1.18 1.67 1.85a4.4 4.4 0 0 0 2.4.67q1.33 0 2.39-.67M33 44H17v3h16z"/></svg>