<svg xmlns="http://www.w3.org/2000/svg" width="64" height="64" fill="none" viewBox="0 0 64 64"><defs><linearGradient id="a" x1="-.39" x2="24.39" y1="7.67" y2="61.13" gradientUnits="userSpaceOnUse"><stop offset=".1" stop-color="#fc801d"/><stop offset=".59" stop-color="#fe2857"/></linearGradient><linearGradient id="b" x1="4.33" x2="62.92" y1="59.93" y2="1.34" gradientUnits="userSpaceOnUse"><stop offset=".21" stop-color="#fe2857"/><stop offset=".7" stop-color="#007eff"/></linearGradient></defs><path fill="#ff8100" d="M16.45 6H4.19a4.13 4.13 0 0 0-4.12 4.19l.17 11.04a4.1 4.1 0 0 0 1.44 3.07L39.84 57c.75.65 1.7 1 2.69 1h11.35A4.13 4.13 0 0 0 58 53.88v-11a4.1 4.1 0 0 0-1.41-3.11L19.17 7.02A4 4 0 0 0 16.45 6"/><path fill="url(#a)" d="M14.99 6H4.13A4.13 4.13 0 0 0 0 10.13v12.56q0 .3.04.6L5.5 60.47A4.1 4.1 0 0 0 9.57 64h15.4a4.13 4.13 0 0 0 4.13-4.13l-.01-18.5q0-.65-.2-1.25L18.92 8.87A4.1 4.1 0 0 0 15 6"/><path fill="url(#b)" d="M59.88 0H25.75a4.1 4.1 0 0 0-3.8 2.52L6.15 39.94a4 4 0 0 0-.32 1.64l.15 18.33A4.13 4.13 0 0 0 10.1 64h17.67c.8 0 1.59-.24 2.26-.68l32.11-21.1A4.1 4.1 0 0 0 64 38.76V4.12A4.13 4.13 0 0 0 59.88 0"/><path fill="#000" d="M52 12H12v40h40z"/><path fill="#fff" d="M33 44H17v3h16zM17 29.38h2.98v-9.77H17v-2.62h8.84v2.62h-2.98v9.77h2.98V32H17zm10.64-.08h2.16a2.4 2.4 0 0 0 1.16-.28q.5-.28.79-.79.28-.51.28-1.16V16.99h2.92v10.28q0 1.35-.62 2.43a4.5 4.5 0 0 1-1.71 1.69q-1.1.6-2.46.6h-2.52z"/></svg>