<svg xmlns="http://www.w3.org/2000/svg" width="64" height="64" fill="none" viewBox="0 0 64 64"><defs><linearGradient id="a" x1="56.33" x2="2.87" y1="-.39" y2="24.39" gradientUnits="userSpaceOnUse"><stop offset=".16" stop-color="#d249fc"/><stop offset=".55" stop-color="#ff2d90"/></linearGradient><linearGradient id="b" x1="4.07" x2="62.66" y1="4.33" y2="62.92" gradientUnits="userSpaceOnUse"><stop offset=".3" stop-color="#ff2d90"/><stop offset=".7" stop-color="#7256ff"/></linearGradient></defs><path fill="#d249fc" d="M58 16.45V4.19A4.13 4.13 0 0 0 53.81.06L42.76.24a4.1 4.1 0 0 0-3.06 1.44L7 39.84c-.65.74-1 1.7-1 2.68v11.35A4.13 4.13 0 0 0 10.13 58h11c1.19 0 2.32-.52 3.1-1.41l32.75-37.43A4 4 0 0 0 58 16.45"/><path fill="url(#a)" d="M58 14.99V4.13A4.13 4.13 0 0 0 53.88 0H41.3a4 4 0 0 0-.6.04L3.53 5.5A4.1 4.1 0 0 0 0 9.57v15.4a4.13 4.13 0 0 0 4.13 4.13h18.5q.65-.01 1.25-.2l31.25-9.98A4.1 4.1 0 0 0 58 14.99"/><path fill="url(#b)" d="M64 59.88V25.75a4.1 4.1 0 0 0-2.52-3.8L24.06 6.15a4 4 0 0 0-1.64-.32l-18.33.15A4.1 4.1 0 0 0 0 10.1v17.67c0 .8.24 1.6.68 2.27l21.1 32.1A4.1 4.1 0 0 0 25.24 64h34.64A4.13 4.13 0 0 0 64 59.88"/><path fill="#000" d="M52 12H12v40h40z"/><path fill="#fff" d="M33 44H17v3h16zM17 17h6.43q1.6 0 2.78.57a4.3 4.3 0 0 1 2.5 4.06q0 1.4-.66 2.47a4.4 4.4 0 0 1-1.87 1.64q-1.2.6-2.83.59h-3.43V32h-2.93zm7.53 6.62q.55-.27.85-.78t.3-1.2c0-.69-.1-.84-.3-1.17a2 2 0 0 0-.85-.77q-.56-.27-1.29-.27h-3.32v4.47h3.32q.74 0 1.3-.28Zm8.04 8.04q-1.26-.59-1.97-1.65a4.4 4.4 0 0 1-.73-2.44h2.93q0 .66.35 1.15.33.49.95.77.6.27 1.4.28.78 0 1.34-.25t.89-.7c.32-.46.31-.65.31-1.04q0-.7-.43-1.19a2.3 2.3 0 0 0-1.2-.65l-2.64-.59a5 5 0 0 1-1.87-.8 4 4 0 0 1-1.23-1.43q-.45-.84-.44-1.9 0-1.29.66-2.32a4.5 4.5 0 0 1 1.86-1.6q1.2-.57 2.7-.57c1.5 0 1.93.19 2.73.56q1.2.56 1.87 1.55t.68 2.28h-2.92q0-.56-.3-.98a2 2 0 0 0-.81-.68 3 3 0 0 0-1.22-.24q-.69 0-1.2.23a2 2 0 0 0-.81.65q-.3.4-.3.96 0 .6.4 1.02t1.1.58l2.56.56q1.1.22 1.97.85a4.5 4.5 0 0 1 1.34 1.55q.48.9.48 2 0 1.32-.7 2.38a5 5 0 0 1-1.97 1.66q-1.26.6-2.89.6t-2.89-.6"/></svg>