<svg xmlns="http://www.w3.org/2000/svg" width="64" height="64" fill="none" viewBox="0 0 64 64"><defs><linearGradient id="a" x1="7.67" x2="61.13" y1="64.39" y2="39.61" gradientUnits="userSpaceOnUse"><stop offset=".1" stop-color="#00d886"/><stop offset=".59" stop-color="#f0eb18"/></linearGradient><linearGradient id="b" x1="59.93" x2="1.34" y1="59.68" y2="1.08" gradientUnits="userSpaceOnUse"><stop offset=".3" stop-color="#f0eb18"/><stop offset=".7" stop-color="#00c4f4"/></linearGradient></defs><path fill="#00d886" d="M6 47.55v12.26a4.13 4.13 0 0 0 4.19 4.12l11.04-.17a4.1 4.1 0 0 0 3.07-1.44L57 24.16c.65-.75 1-1.7 1-2.69V10.13A4.13 4.13 0 0 0 53.88 6h-11c-1.2 0-2.33.51-3.11 1.4L7.02 44.84A4 4 0 0 0 6 47.55"/><path fill="url(#a)" d="M6 49.02v10.86A4.13 4.13 0 0 0 10.13 64h12.56a4 4 0 0 0 .6-.04l37.18-5.45A4.1 4.1 0 0 0 64 54.43v-15.4a4.13 4.13 0 0 0-4.13-4.12h-18.5q-.65 0-1.25.2L8.87 45.09A4.1 4.1 0 0 0 6 49"/><path fill="url(#b)" d="M0 4.13v34.12c0 1.66 1 3.16 2.52 3.8l37.42 15.8a4 4 0 0 0 1.64.32l18.33-.15A4.13 4.13 0 0 0 64 53.9V36.23c0-.8-.24-1.59-.68-2.26L42.22 1.86A4.1 4.1 0 0 0 38.76 0H4.12A4.13 4.13 0 0 0 0 4.13"/><path fill="#000" d="M52 12H12v40h40z"/><path fill="#fff" d="M33 44H17v3h16zM17 17h6.43q1.6 0 2.78.57a4.3 4.3 0 0 1 2.5 4.06q0 1.4-.66 2.47a4.4 4.4 0 0 1-1.87 1.64q-1.2.6-2.83.59h-3.43V32h-2.93zm7.53 6.62q.55-.27.85-.78t.3-1.2c0-.69-.1-.84-.3-1.17a2 2 0 0 0-.85-.77q-.56-.27-1.29-.27h-3.32v4.47h3.32q.74 0 1.3-.28Zm9.18 7.62a7.3 7.3 0 0 1-2.74-2.78q-1-1.78-1-3.97c0-2.18.34-2.77 1-3.95a7.3 7.3 0 0 1 2.74-2.8 7.6 7.6 0 0 1 3.9-1q1.83 0 3.35.67a7 7 0 0 1 2.53 1.9 6.4 6.4 0 0 1 1.36 2.78h-3.07a4 4 0 0 0-.9-1.43 4 4 0 0 0-1.42-.95 5 5 0 0 0-1.82-.33q-1.35 0-2.4.67a4.6 4.6 0 0 0-1.68 1.82q-.6 1.17-.6 2.62 0 1.47.6 2.62a4.6 4.6 0 0 0 1.67 1.83q1.08.67 2.4.67.99 0 1.83-.34a4 4 0 0 0 2.32-2.38h3.07a6.4 6.4 0 0 1-1.36 2.8 7 7 0 0 1-2.53 1.89 8 8 0 0 1-3.34.67 7.6 7.6 0 0 1-3.9-1.01Z"/></svg>