<svg xmlns="http://www.w3.org/2000/svg" width="64" height="64" fill="none" viewBox="0 0 64 64"><defs><linearGradient id="a" x1="64.39" x2="39.61" y1="56.33" y2="2.87" gradientUnits="userSpaceOnUse"><stop offset=".21" stop-color="#007dfe"/><stop offset=".55" stop-color="#ffb700"/></linearGradient><linearGradient id="b" x1="59.68" x2="1.08" y1="4.07" y2="62.66" gradientUnits="userSpaceOnUse"><stop offset=".23" stop-color="#ffb700"/><stop offset=".73" stop-color="#ff0a67"/></linearGradient></defs><path fill="#007dfe" d="M47.55 58h12.26a4.13 4.13 0 0 0 4.12-4.19l-.17-11.04a4.1 4.1 0 0 0-1.44-3.07L24.16 7a4 4 0 0 0-2.69-1H10.13A4.13 4.13 0 0 0 6 10.13v11c0 1.19.51 2.32 1.4 3.1l37.43 32.75A4 4 0 0 0 47.55 58"/><path fill="url(#a)" d="M49.01 58h10.87A4.13 4.13 0 0 0 64 53.88V41.3a4 4 0 0 0-.04-.6L58.5 3.53A4.1 4.1 0 0 0 54.43 0h-15.4a4.13 4.13 0 0 0-4.13 4.13v18.5q.01.65.2 1.25l9.98 31.25A4.1 4.1 0 0 0 49.01 58"/><path fill="url(#b)" d="M4.13 64h34.12a4.1 4.1 0 0 0 3.8-2.52l15.8-37.42a4 4 0 0 0 .32-1.64l-.15-18.33A4.1 4.1 0 0 0 53.9 0H36.23c-.8 0-1.59.24-2.26.68L1.86 21.78A4.1 4.1 0 0 0 0 25.24v34.64A4.13 4.13 0 0 0 4.13 64"/><path fill="#000" d="M52 12H12v40h40z"/><path fill="#fff" d="M33 44H17v3h16zM17 17h6.43q1.58 0 2.78.57a4.3 4.3 0 0 1 2.5 4.06 4.4 4.4 0 0 1-2.53 4.11q-1.23.6-2.83.59h-3.43V32h-2.93zm7.53 6.62a2 2 0 0 0 .85-.78q.3-.51.3-1.19t-.3-1.18-.85-.77-1.29-.27h-3.32v4.47h3.32q.75 0 1.3-.28Zm-2.63 1.76h3.2L29.03 32h-3.35zM31.61 17h5.72q2.13 0 3.82.97a7 7 0 0 1 2.64 2.67 8 8 0 0 1 .95 3.87 8 8 0 0 1-.95 3.86 7 7 0 0 1-2.64 2.67q-1.7.97-3.82.97H31.6zm8.03 11.88q1.01-.6 1.56-1.72a6 6 0 0 0 .54-2.65q0-1.54-.54-2.66a4 4 0 0 0-1.56-1.72 4.5 4.5 0 0 0-2.35-.6h-2.75v9.95h2.75q1.35 0 2.35-.6"/></svg>