<svg xmlns="http://www.w3.org/2000/svg" width="64" height="64" fill="none" viewBox="0 0 64 64"><defs><linearGradient id="a" x1="4.33" x2="62.92" y1="59.93" y2="1.34" gradientUnits="userSpaceOnUse"><stop offset=".29" stop-color="#ff2358"/><stop offset=".75" stop-color="#7256ff"/></linearGradient><linearGradient id="b" x1="-.39" x2="24.39" y1="7.67" y2="61.13" gradientUnits="userSpaceOnUse"><stop offset=".29" stop-color="#ff8100"/><stop offset=".56" stop-color="#ff2358"/></linearGradient></defs><path fill="url(#a)" d="M59.88 0H25.74a4.1 4.1 0 0 0-3.8 2.52L6.15 39.94a4 4 0 0 0-.32 1.64l.15 18.33A4.13 4.13 0 0 0 10.1 64h17.67c.8 0 1.59-.23 2.26-.68l32.11-21.1A4.1 4.1 0 0 0 64 38.76V4.12A4.13 4.13 0 0 0 59.88 0"/><path fill="url(#b)" d="M14.99 6H4.13A4.13 4.13 0 0 0 0 10.13v12.56q0 .3.04.6L5.5 60.47A4.1 4.1 0 0 0 9.57 64h15.4a4.13 4.13 0 0 0 4.13-4.13v-18.5q-.01-.65-.2-1.25L18.91 8.87A4.1 4.1 0 0 0 14.99 6"/><path fill="#ff8100" d="M16.45 6H4.19a4.13 4.13 0 0 0-4.12 4.19L0 21a5 5 0 0 0 1.68 3.3L39.84 57c.75.65 1.7 1 2.68 1h11.35A4.13 4.13 0 0 0 58 53.87v-11a4.1 4.1 0 0 0-1.41-3.1L19.17 7.02A4 4 0 0 0 16.45 6"/><path fill="#000" d="M52 12H12v40h40z"/><path fill="#fff" d="M33 44H17v3h16zM17.01 17h6.44q1.58 0 2.78.57a4.3 4.3 0 0 1 2.5 4.06 4.4 4.4 0 0 1-2.53 4.11q-1.23.6-2.83.59h-3.43V32H17zm7.54 6.62a2 2 0 0 0 .85-.78q.3-.51.3-1.19t-.3-1.18a2 2 0 0 0-.85-.77q-.55-.27-1.29-.27h-3.32v4.47h3.32q.74 0 1.3-.28m-2.63 1.76h3.2L29.05 32H25.7zm9.7-8.38h4.08l3.08 9.85.26 1.29.23-1.29L42.26 17h4.13v15h-2.9V21.3l.05-.78L40.04 32h-2.11l-3.46-11.42.05.71v10.7h-2.89z"/></svg>