<svg xmlns="http://www.w3.org/2000/svg" width="64" height="64" fill="none" viewBox="0 0 64 64"><defs><linearGradient id="a" x1="7.67" x2="61.13" y1="64.39" y2="39.61" gradientUnits="userSpaceOnUse"><stop offset=".08" stop-color="#00d886"/><stop offset=".46" stop-color="#ffab00"/></linearGradient><linearGradient id="b" x1="59.93" x2="1.34" y1="59.68" y2="1.08" gradientUnits="userSpaceOnUse"><stop offset=".19" stop-color="#ffab00"/><stop offset=".83" stop-color="#ff004c"/></linearGradient></defs><path fill="#00d886" d="M6 47.55v12.26a4.13 4.13 0 0 0 4.19 4.12l11.04-.17a4.1 4.1 0 0 0 3.07-1.44L57 24.16c.65-.75 1-1.7 1-2.69V10.13A4.13 4.13 0 0 0 53.88 6h-11c-1.2 0-2.33.51-3.11 1.4L7.02 44.84A4 4 0 0 0 6 47.55"/><path fill="url(#a)" d="M6 49.02v10.86A4.13 4.13 0 0 0 10.13 64h12.56a4 4 0 0 0 .6-.04l37.18-5.45A4.1 4.1 0 0 0 64 54.43v-15.4a4.13 4.13 0 0 0-4.13-4.12h-18.5q-.65 0-1.25.2L8.87 45.09A4.1 4.1 0 0 0 6 49"/><path fill="url(#b)" d="M0 4.13v34.12c0 1.66 1 3.16 2.52 3.8l37.42 15.8a4 4 0 0 0 1.64.32l18.33-.15A4.13 4.13 0 0 0 64 53.9V36.23c0-.8-.24-1.59-.68-2.26L42.22 1.86A4.1 4.1 0 0 0 38.76 0H4.12A4.13 4.13 0 0 0 0 4.13"/><path fill="#000" d="M52 12H12v40h40z"/><path fill="#fff" d="M33 44H17v3h16zM17 17h6.43q1.58 0 2.78.57a4.3 4.3 0 0 1 2.5 4.06 4.4 4.4 0 0 1-2.53 4.11q-1.23.6-2.83.59h-3.43V32h-2.93zm7.53 6.62a2 2 0 0 0 .85-.78q.3-.51.3-1.19t-.3-1.18-.85-.77-1.29-.27h-3.32v4.47h3.32q.75 0 1.3-.28Zm-2.63 1.76h3.2L29.03 32h-3.35zM31.61 17h6.45q1.56 0 2.77.58a4.3 4.3 0 0 1 2.5 4.06 4.4 4.4 0 0 1-2.53 4.11q-1.23.6-2.83.59h-3.43V32h-2.93zm7.54 6.63a2 2 0 0 0 .86-.78q.3-.51.3-1.19t-.3-1.18-.86-.77q-.55-.27-1.29-.27h-3.32v4.47h3.32q.75 0 1.3-.28Zm-2.63 1.76h3.2L43.65 32H40.3z"/></svg>