<svg xmlns="http://www.w3.org/2000/svg" width="64" height="64" fill="none" viewBox="0 0 64 64"><defs><linearGradient id="a" x1="7.67" x2="61.13" y1="64.39" y2="39.61" gradientUnits="userSpaceOnUse"><stop offset=".22" stop-color="#f0eb18"/><stop offset=".59" stop-color="#00c4f4"/></linearGradient><linearGradient id="b" x1="59.93" x2="1.34" y1="59.68" y2="1.08" gradientUnits="userSpaceOnUse"><stop offset=".19" stop-color="#00c4f4"/><stop offset=".83" stop-color="#007dfe"/></linearGradient></defs><path fill="#f0eb18" d="M6 47.55v12.26a4.13 4.13 0 0 0 4.19 4.12l11.04-.17a4.1 4.1 0 0 0 3.07-1.44L57 24.16c.65-.75 1-1.7 1-2.69V10.13A4.13 4.13 0 0 0 53.88 6h-11c-1.2 0-2.33.51-3.11 1.4L7.02 44.84A4 4 0 0 0 6 47.55"/><path fill="url(#a)" d="M6 49.02v10.86A4.13 4.13 0 0 0 10.13 64h12.56a4 4 0 0 0 .6-.04l37.18-5.45A4.1 4.1 0 0 0 64 54.43v-15.4a4.13 4.13 0 0 0-4.13-4.12h-18.5q-.65 0-1.25.2L8.87 45.09A4.1 4.1 0 0 0 6 49"/><path fill="url(#b)" d="M0 4.13v34.12c0 1.66 1 3.16 2.52 3.8l37.42 15.8a4 4 0 0 0 1.64.32l18.33-.15A4.13 4.13 0 0 0 64 53.9V36.23c0-.8-.24-1.59-.68-2.26L42.22 1.86A4.1 4.1 0 0 0 38.76 0H4.12A4.13 4.13 0 0 0 0 4.13"/><path fill="#000" d="M52 12H12v40h40z"/><path fill="#fff" d="M33 44H17v3h16zM19.05 17l2.42 10.95 2.59-10.96H27l2.7 10.96 2.35-10.96h2.97L31.4 32h-3.34l-2.53-10.9L22.96 32h-3.32l-3.62-15zm19.61 14.66q-1.26-.59-1.97-1.65a4.4 4.4 0 0 1-.73-2.44h2.93q0 .66.34 1.15t.96.77q.6.27 1.4.28.78 0 1.34-.25t.89-.7q.3-.45.31-1.04 0-.7-.43-1.19a2.3 2.3 0 0 0-1.2-.65l-2.64-.59a5 5 0 0 1-1.87-.8 4 4 0 0 1-1.23-1.43q-.45-.84-.44-1.9 0-1.29.66-2.32a4.5 4.5 0 0 1 1.86-1.6q1.2-.57 2.7-.57 1.52 0 2.73.56 1.2.56 1.87 1.55t.68 2.28H43.9q0-.56-.3-.98c-.3-.42-.46-.52-.81-.68a3 3 0 0 0-1.22-.24q-.69 0-1.2.23a2 2 0 0 0-.81.65q-.3.4-.3.96 0 .6.4 1.02t1.1.58l2.56.56q1.1.22 1.97.85a4.5 4.5 0 0 1 1.34 1.55 4 4 0 0 1 .48 2q0 1.32-.7 2.38a5 5 0 0 1-1.96 1.66q-1.27.6-2.9.6t-2.89-.6"/></svg>