<svg xmlns="http://www.w3.org/2000/svg" width="200" height="200" viewBox="0 0 200 200"><defs><linearGradient id="a" x1="0%" x2="100%" y1="0%" y2="100%"><stop offset="0%" style="stop-color:#f0f9ff;stop-opacity:1"/><stop offset="100%" style="stop-color:#e6f7ff;stop-opacity:1"/></linearGradient><linearGradient id="b" x1="0%" x2="100%" y1="0%" y2="0%"><stop offset="0%" style="stop-color:#27ae60;stop-opacity:1"/><stop offset="100%" style="stop-color:#2ecc71;stop-opacity:1"/></linearGradient></defs><rect width="200" height="200" fill="url(#a)" rx="20" ry="20"/><ellipse cx="100" cy="115" fill="#fff" stroke="#2d3436" stroke-width="2" rx="40" ry="35"/><circle cx="100" cy="65" r="35" fill="#fff" stroke="#2d3436" stroke-width="2"/><circle cx="70" cy="38" r="10" fill="#2d3436"/><circle cx="130" cy="38" r="10" fill="#2d3436"/><ellipse cx="85" cy="60" fill="#2d3436" rx="12" ry="14" transform="rotate(-10 85 60)"/><ellipse cx="115" cy="60" fill="#2d3436" rx="12" ry="14" transform="rotate(10 115 60)"/><circle cx="88" cy="57" r="4" fill="#fff"/><circle cx="112" cy="57" r="4" fill="#fff"/><circle cx="88" cy="57" r="2"/><circle cx="112" cy="57" r="2"/><ellipse cx="100" cy="72" fill="#2d3436" rx="5" ry="3"/><path fill="none" stroke="#2d3436" stroke-linecap="round" stroke-width="1.5" d="M93 80q7 6 14 0"/><ellipse cx="60" cy="100" fill="#fff" stroke="#2d3436" stroke-width="2" rx="12" ry="20" transform="rotate(20 60 100)"/><ellipse cx="140" cy="100" fill="#fff" stroke="#2d3436" stroke-width="2" rx="12" ry="20" transform="rotate(-20 140 100)"/><rect width="5" height="80" x="70" y="70" fill="url(#b)" rx="2" transform="rotate(-15 72 110)"/><path fill="#27ae60" d="M68 90q-13-8-18 0 5 5 18 2m7 18q15-8 20 0-5 5-20 3m-3 17q-14-8-19 0 5 5 19 2"/><ellipse cx="75" cy="145" fill="#fff" stroke="#2d3436" stroke-width="2" rx="18" ry="12"/><text x="75" y="150" fill="#e74c3c" font-family="Microsoft YaHei, SimHei, sans-serif" font-size="12" font-weight="bold" text-anchor="middle">佛</text><ellipse cx="125" cy="145" fill="#fff" stroke="#2d3436" stroke-width="2" rx="18" ry="12"/><text x="125" y="150" fill="#3498db" font-family="Microsoft YaHei, SimHei, sans-serif" font-size="12" font-weight="bold" text-anchor="middle">系</text></svg>